<svg id="Capa_1" enable-background="new 0 0 512 512" height="512" viewBox="0 0 512 512" width="512" xmlns="http://www.w3.org/2000/svg"><g><path d="m502 45.216h-286.047c-5.523 0-10 4.478-10 10v103.27h-195.953c-5.523 0-10 4.478-10 10v248.623c0 5.522 4.477 10 10 10h47.769l2.191 30.395c.26 3.604 2.443 6.787 5.711 8.327 1.356.64 2.812.954 4.262.954 2.042 0 4.074-.626 5.796-1.851l53.199-37.825h189.943c5.522 0 10-4.478 10-10v-121.643h63.898l57.654 34.596c1.58.947 3.361 1.425 5.146 1.425 1.545 0 3.093-.357 4.516-1.077 3.065-1.552 5.12-4.569 5.44-7.99l2.525-26.953h33.95c5.522 0 10-4.477 10-10v-230.251c0-5.523-4.478-10-10-10zm-193.128 361.892h-183.136c-2.077 0-4.102.647-5.795 1.851l-41.311 29.372-1.582-21.941c-.377-5.23-4.73-9.281-9.974-9.281h-47.074v-228.624h288.872zm183.128-131.642h-33.056c-5.161 0-9.475 3.929-9.956 9.067l-1.893 20.205-46.409-27.848c-1.555-.933-3.333-1.425-5.146-1.425h-66.669v-106.98c0-5.522-4.478-10-10-10h-92.92v-93.27h266.049z"/><path d="m193.197 225.213c-5.093-2.139-10.953.256-13.093 5.347l-48.217 114.776c-2.139 5.092.255 10.953 5.347 13.093 1.265.531 2.578.783 3.869.783 3.906 0 7.616-2.304 9.224-6.13l48.217-114.776c2.138-5.092-.255-10.954-5.347-13.093z"/><path d="m158.647 253.815c0-19.151-14.044-34.732-31.305-34.732s-31.305 15.581-31.305 34.732 14.043 34.733 31.305 34.733 31.305-15.581 31.305-34.733zm-31.305 14.733c-6.128 0-11.305-6.747-11.305-14.733 0-7.985 5.177-14.732 11.305-14.732s11.305 6.747 11.305 14.732c0 7.986-5.177 14.733-11.305 14.733z"/><path d="m201.53 297.558c-17.261 0-31.305 15.581-31.305 34.732s14.043 34.732 31.305 34.732c17.261 0 31.305-15.581 31.305-34.732-.001-19.151-14.044-34.732-31.305-34.732zm0 49.464c-6.128 0-11.305-6.747-11.305-14.732s5.177-14.732 11.305-14.732 11.305 6.747 11.305 14.732c-.001 7.985-5.177 14.732-11.305 14.732z"/></g></svg>