<svg id="Capa_1" enable-background="new 0 0 512 512" height="512" viewBox="0 0 512 512" width="512" xmlns="http://www.w3.org/2000/svg"><g><path d="m262.681 77.091h-52.021c-5.523 0-10 4.478-10 10v331.271c0 5.522 4.477 10 10 10h52.021c5.522 0 10-4.478 10-10v-331.271c0-5.522-4.478-10-10-10zm-10 331.27h-32.021v-311.27h32.021z"/><path d="m171.351 77.091h-42.021c-5.523 0-10 4.478-10 10v331.271c0 5.522 4.477 10 10 10h42.021c5.523 0 10-4.478 10-10v-331.271c0-5.522-4.477-10-10-10zm-10 331.27h-22.021v-311.27h22.021z"/><path d="m52.021 77.091h-42.021c-5.523 0-10 4.478-10 10v331.271c0 5.522 4.477 10 10 10h42.021c5.523 0 10-4.478 10-10v-331.271c0-5.522-4.477-10-10-10zm-10 331.27h-22.021v-311.27h22.021z"/><path d="m90.021 77.091c-5.523 0-10 4.478-10 10v331.271c0 5.522 4.477 10 10 10s10-4.478 10-10v-331.271c0-5.522-4.477-10-10-10z"/><path d="m509.071 417.838-54.894-54.895c14.43-17.625 22.276-39.501 22.276-62.583 0-26.444-10.298-51.307-28.997-70.006-12.436-12.436-27.598-21.156-44.138-25.602v-117.661c0-5.522-4.478-10-10-10s-10 4.478-10 10v114.437c-1.946-.113-3.903-.17-5.868-.17-4.535 0-9.022.303-13.44.899v-115.166c0-5.522-4.478-10-10-10h-52.021c-5.522 0-10 4.478-10 10v161.952c0 .388.023.771.066 1.147-8.874 15.046-13.606 32.244-13.606 50.171 0 17.882 4.709 35.039 13.54 50.058v67.943c0 5.522 4.478 10 10 10h52.021c5.522 0 10-4.478 10-10v-19.898c4.418.596 8.906.899 13.44.899 1.965 0 3.922-.057 5.868-.17v19.169c0 5.522 4.478 10 10 10s10-4.478 10-10v-22.394c13.378-3.596 25.854-9.988 36.716-18.881l54.894 54.895c1.953 1.952 4.512 2.929 7.071 2.929s5.118-.977 7.071-2.929c3.907-3.907 3.907-10.239.001-14.144zm-165.06-320.747v110.03c-11.684 4.182-22.53 10.574-32.021 18.962v-128.992zm0 311.27h-32.021v-33.725c9.492 8.389 20.338 14.781 32.021 18.962zm-22.422-52.138c-14.922-14.921-23.14-34.76-23.14-55.862 0-21.103 8.218-40.941 23.14-55.863 14.921-14.922 34.76-23.14 55.862-23.14 21.103 0 40.941 8.218 55.863 23.14s23.14 34.761 23.14 55.863c0 21.103-8.218 40.941-23.14 55.862-14.922 14.922-34.761 23.14-55.863 23.14-21.102-.001-40.941-8.218-55.862-23.14z"/><path d="m411.834 273.602c-4.22-3.565-10.53-3.031-14.092 1.189l-25.286 29.95-8.447-8.392c-3.917-3.893-10.25-3.874-14.142.046-3.893 3.918-3.872 10.25.046 14.142l16.141 16.035c1.878 1.865 4.413 2.906 7.048 2.906.146 0 .291-.003.438-.01 2.79-.122 5.402-1.405 7.203-3.539l32.281-38.236c3.563-4.22 3.03-10.529-1.19-14.091z"/></g></svg>