<svg id="Capa_1" enable-background="new 0 0 512 512" height="512" viewBox="0 0 512 512" width="512" xmlns="http://www.w3.org/2000/svg"><g><path d="m193.136 472.084h13.333c5.523 0 10-4.478 10-10 0-5.523-4.477-10-10-10h-13.333c-5.523 0-10 4.477-10 10 0 5.522 4.477 10 10 10z"/><path d="m470.803 241.846c0-64.122-49.565-116.885-112.395-121.99v-71.753c0-26.524-21.66-48.103-48.284-48.103h-220.643c-26.624 0-48.284 21.579-48.284 48.103v415.704c0 26.574 21.619 48.193 48.193 48.193h220.825c26.574 0 48.193-21.619 48.193-48.193v-99.971c62.83-5.105 112.395-57.869 112.395-121.99zm-224.985 66.778-18.76 37.757c-1.648 3.315-1.328 7.27.83 10.278 2.157 3.007 5.8 4.583 9.47 4.08l59.132-8.025c13.278 6.237 27.328 9.965 41.918 11.13v48.324h-277.211v-327.623h277.211v35.311c-62.829 5.104-112.395 57.868-112.395 121.99.001 23.949 6.829 46.907 19.805 66.778zm-156.337-288.624h220.643c15.596 0 28.284 12.606 28.284 28.103v16.442h-277.211v-16.442c0-15.497 12.688-28.103 28.284-28.103zm248.927 443.807c0 15.546-12.647 28.193-28.193 28.193h-220.825c-15.545 0-28.193-12.647-28.193-28.193v-31.639h277.211zm10-119.567c-16.102 0-31.509-3.628-45.793-10.783-1.396-.699-2.93-1.059-4.478-1.059-.448 0-.898.03-1.345.091l-43.428 5.895 12.984-26.132c1.656-3.333 1.324-7.312-.863-10.324-12.738-17.547-19.471-38.323-19.471-60.082 0-56.461 45.934-102.395 102.395-102.395 56.46 0 102.395 45.934 102.395 102.395s-45.935 102.394-102.396 102.394z"/><path d="m339.17 191.25c3.715 9.055 17.163 7.737 19.04-1.87 1.953-9.583-9.978-15.98-16.87-9.02-2.834 2.761-3.727 7.256-2.17 10.89z"/><path d="m359.132 234.021c5.523 0 10-4.478 10-10 0-5.523-4.477-10-10-10h-21.447c-5.523 0-10 4.477-10 10 0 5.522 4.477 10 10 10h.724v36.916h-.724c-5.523 0-10 4.478-10 10s4.477 10 10 10h21.447c5.523 0 10-4.478 10-10s-4.477-10-10-10h-.724v-36.916z"/></g></svg>