<svg id="Capa_1" enable-background="new 0 0 512 512" height="512" viewBox="0 0 512 512" width="512" xmlns="http://www.w3.org/2000/svg"><g><path d="m174.368 452.084h-13.333c-5.523 0-10 4.477-10 10 0 5.522 4.477 10 10 10h13.333c5.523 0 10-4.478 10-10 0-5.523-4.477-10-10-10z"/><path d="m244.235 121.25h-149.068c-5.523 0-10 4.478-10 10v132.314c0 5.522 4.477 10 10 10h149.068c5.523 0 10-4.478 10-10v-132.314c0-5.522-4.477-10-10-10zm-57.724 20v50.695l-12.791-5.614c-1.281-.562-2.65-.843-4.019-.843s-2.738.281-4.019.843l-12.791 5.614v-50.695zm47.724 112.314h-129.068v-112.314h27.724v66.005c0 3.377 1.704 6.525 4.531 8.372 2.828 1.848 6.396 2.141 9.488.785l22.791-10.003 22.791 10.003c1.287.564 2.655.843 4.018.843 1.914 0 3.818-.55 5.469-1.628 2.827-1.847 4.531-4.995 4.531-8.372v-66.005h27.724z"/><path d="m500.838 325.078c-.006-16.757-13.645-30.396-30.405-30.403l-142.126-.023v-246.549c0-26.524-21.66-48.103-48.285-48.103h-220.642c-26.624 0-48.284 21.579-48.284 48.103v415.704c0 26.574 21.619 48.193 48.193 48.193h411.22.013c8.116 0 15.747-3.16 21.485-8.897 5.741-5.742 8.901-13.377 8.897-21.498zm-272.921-30.442h-.014c-8.116 0-15.746 3.16-21.484 8.897-5.741 5.741-8.901 13.376-8.898 21.497l.037 87.138c-.005 0-.011 0-.016 0h-166.446v-327.623h277.211v210.104zm-168.537-274.636h220.643c15.596 0 28.284 12.606 28.284 28.103v16.442h-277.211v-16.442c0-15.497 12.688-28.103 28.284-28.103zm-28.284 443.807v-31.639h166.447.025l.021 49.389c.001 3.667.656 7.185 1.852 10.443h-140.152c-15.546 0-28.193-12.647-28.193-28.193zm446.768 25.153c-1.961 1.961-4.568 3.04-7.343 3.04h-.005s-.001 0-.002 0l-242.516-.04c-5.738-.002-10.409-4.673-10.411-10.411l-.066-156.526c-.001-2.776 1.079-5.385 3.04-7.347 1.961-1.961 4.568-3.04 7.345-3.04h.005l242.516.039c5.738.003 10.409 4.673 10.411 10.411l.066 156.526c.001 2.777-1.078 5.386-3.04 7.348z"/><path d="m446.088 364.38c-8.242-.004-14.951-6.713-14.955-14.955-.002-5.522-4.479-9.996-10-9.996h-143.888c-2.653 0-5.197 1.054-7.072 2.931-1.876 1.876-2.929 4.421-2.928 7.073.002 3.989-1.55 7.739-4.369 10.559-2.817 2.817-6.566 4.369-10.553 4.369-.002-.001-.005-.001-.009 0-2.652 0-5.196 1.054-7.071 2.93-1.876 1.876-2.93 4.422-2.929 7.075l.027 57.896c.003 5.52 4.477 9.993 9.997 9.995 8.243.003 14.951 6.711 14.954 14.954.002 5.521 4.478 9.996 10 9.996l143.888.001c2.652 0 5.197-1.054 7.072-2.93 1.875-1.877 2.929-4.421 2.928-7.074-.001-3.989 1.551-7.739 4.37-10.559 2.817-2.818 6.564-4.369 10.551-4.369.003-.001.004-.001.011 0 2.652 0 5.196-1.054 7.071-2.929 1.876-1.877 2.93-4.422 2.929-7.076l-.027-57.896c-.004-5.52-4.478-9.993-9.997-9.995zm-24.681 68.122c-4.169 4.169-7.153 9.206-8.786 14.705l-126.789-.001c-3.366-11.242-12.252-20.126-23.495-23.491l-.018-40.798c5.496-1.632 10.532-4.616 14.7-8.784 4.168-4.169 7.153-9.206 8.785-14.704h126.79c3.367 11.242 12.252 20.126 23.494 23.491l.02 40.798c-5.497 1.633-10.534 4.617-14.701 8.784z"/></g></svg>