<svg id="Capa_1" enable-background="new 0 0 512 512" height="512" viewBox="0 0 512 512" width="512" xmlns="http://www.w3.org/2000/svg"><g><path d="m411.36 320.021v1.568c0 5.522 4.477 10 10 10 5.522 0 10-4.478 10-10v-.803c22.466-2.789 32.266-17.362 33.918-30.369 2.309-18.175-9.596-35.646-28.948-42.487-1.746-.617-3.402-1.208-4.97-1.773v-32.985c4.176 1.23 7.066 3.34 8.473 5.344 3.173 4.521 9.41 5.614 13.93 2.441 4.522-3.173 5.614-9.409 2.441-13.93-4.789-6.824-13.488-12.515-24.844-14.331v-2.285c0-5.522-4.478-10-10-10-5.523 0-10 4.478-10 10v3.051c-1.581.348-3.188.765-4.819 1.257-12.689 3.822-22.268 16.15-23.293 29.979-1.013 13.651 6.259 25.515 19.448 31.733 1.895.894 4.873 2.132 8.664 3.609v39.434c-5.339-1.564-10.257-4.218-13.44-8.169-3.465-4.303-9.761-4.979-14.06-1.516-4.302 3.465-4.98 9.76-1.516 14.061 7.41 9.201 18.366 14.103 29.016 16.171zm34.078-32.124c-.824 6.493-5.885 10.974-14.077 12.637v-33.093c10.862 4.557 14.942 13.639 14.077 20.456zm-34.21-49.554c-7.137-3.365-8.308-8.473-8.034-12.165.385-5.202 3.823-10.157 8.167-11.968v24.195c-.046-.021-.09-.042-.133-.062z"/><path d="m502 95.425h-492c-5.523 0-10 4.478-10 10v301.15c0 5.522 4.477 10 10 10h492c5.522 0 10-4.478 10-10v-301.15c0-5.523-4.478-10-10-10zm-10 301.15h-472v-281.15h472z"/><path d="m339.445 359.83c5.522 0 10-4.478 10-10v-12.213c0-5.522-4.478-10-10-10s-10 4.478-10 10v12.213c0 5.523 4.478 10 10 10z"/><path d="m339.445 301.348c5.522 0 10-4.478 10-10v-12.213c0-5.522-4.478-10-10-10s-10 4.478-10 10v12.213c0 5.522 4.478 10 10 10z"/><path d="m339.445 242.865c5.522 0 10-4.478 10-10v-12.213c0-5.522-4.478-10-10-10s-10 4.478-10 10v12.213c0 5.523 4.478 10 10 10z"/><path d="m339.445 184.383c5.522 0 10-4.477 10-10v-12.213c0-5.522-4.478-10-10-10s-10 4.478-10 10v12.213c0 5.522 4.478 10 10 10z"/><path d="m61.796 301.204c20.417 11.45 50.003 1.839 69.009-6.787v42.71c0 3.549 1.881 6.832 4.942 8.627 3.063 1.796 6.846 1.833 9.942.099l28.587-16.003 28.587 16.003c1.519.851 3.202 1.275 4.885 1.275 1.749 0 3.497-.458 5.058-1.373 3.062-1.795 4.942-5.078 4.942-8.627v-42.71c19.007 8.627 48.593 18.237 69.011 6.787 7.992-4.484 17.659-14.147 18.321-34.723.006-.196.007-.394.001-.59l-1.631-60.689c.79-9.521.347-20.348-8.075-29.172-22.943-24.031-69.098-4.489-98.059 16.475-3.03-1.55-6.051-2.67-9.032-3.351-8.878-2.67-18.552-2.729-27.46-.163-3.212.637-6.403 1.734-9.545 3.282-13.523-9.732-29.528-18.025-43.957-22.678-30.063-9.693-46.037-1.607-54.143 6.884-8.387 8.785-8.847 19.401-8.076 28.722l-1.631 60.689c-.006.196-.005.394.001.59.663 20.576 10.33 30.24 18.323 34.723zm3.28-97.177c-.748-8.454.376-11.438 2.57-13.737 13.629-14.281 54.035 3.852 76.756 21.844 3.479 2.753 8.358 2.887 11.982.325 2.955-2.089 5.839-3.399 8.571-3.895.37-.066.735-.154 1.095-.263 5.4-1.621 11.336-1.592 16.719.081.292.091.587.168.885.232 2.558.545 5.423 1.931 8.516 4.118 3.626 2.564 8.504 2.431 11.982-.324 22.879-18.118 63.381-36.581 76.756-22.567 2.102 2.201 3.343 5.457 2.57 14.186-.034.383-.046.767-.035 1.15l1.638 60.942c-.507 13.379-6.22 16.582-8.105 17.641-11.568 6.488-38.003.594-64.29-14.327-3.096-1.757-6.894-1.736-9.968.055-3.076 1.791-4.969 5.082-4.969 8.642v41.938l-18.587-10.404c-1.518-.85-3.201-1.275-4.885-1.275s-3.367.425-4.885 1.275l-18.587 10.404v-41.938c0-3.56-1.893-6.851-4.969-8.642s-6.872-1.812-9.968-.055c-26.287 14.921-52.725 20.814-64.288 14.327-1.887-1.059-7.6-4.262-8.107-17.641l1.638-60.942c.011-.383-.001-.767-.035-1.15z"/></g></svg>