<svg id="Capa_1" enable-background="new 0 0 512 512" height="512" viewBox="0 0 512 512" width="512" xmlns="http://www.w3.org/2000/svg"><path d="m502 337.892h-1.468v-66.115c0-.387-.023-.775-.067-1.16-.116-1.002-.379-1.958-.769-2.848l-40.366-97.055c-1.551-3.729-5.194-6.16-9.233-6.16h-66.974v-56.934c0-17.777-14.439-32.24-32.187-32.24h-19.886l-.484-18.005c.829-9.964.379-21.291-8.39-30.479-24.124-25.27-72.922-4.427-103.405 17.739-3.282-1.708-6.55-2.937-9.773-3.67-9.305-2.806-19.458-2.866-28.801-.169-3.474.686-6.927 1.89-10.326 3.599-12.006-8.619-29.159-18.511-46.679-24.161-31.558-10.176-48.279-1.734-56.75 7.138-8.732 9.148-9.2 20.253-8.391 30.002l-.483 18.006h-13.913c-17.748 0-32.187 14.463-32.187 32.24v230.271h-1.468c-5.523 0-10 4.477-10 10v68.632c0 5.523 4.477 10 10 10h53.074c-.998 4.23-1.527 8.642-1.527 13.175 0 31.413 25.377 56.969 56.571 56.969 31.193 0 56.57-25.556 56.57-56.969 0-4.533-.529-8.945-1.527-13.175h177.863c-.998 4.23-1.527 8.642-1.527 13.175 0 31.413 25.377 56.969 56.571 56.969 31.193 0 56.571-25.556 56.571-56.969 0-4.533-.529-8.945-1.527-13.175h40.888c5.523 0 10-4.477 10-10v-68.632c0-5.522-4.477-9.999-10-9.999zm-118.875-56.115h97.408v56.109h-97.408zm0-97.222h60.301l32.117 77.222h-92.418zm-305.101-128.356c-.813-9.182.443-12.459 2.885-15.017 14.681-15.38 57.875 3.888 82.118 23.087 3.479 2.754 8.358 2.888 11.982.325 3.202-2.264 6.337-3.686 9.317-4.225.37-.067.735-.155 1.095-.263 5.835-1.752 12.248-1.722 18.059.086.292.091.588.168.887.232 2.788.594 5.896 2.095 9.24 4.459 3.624 2.563 8.503 2.431 11.983-.325 25.042-19.832 67.51-39.152 82.118-23.854 2.337 2.449 3.723 6.021 2.885 15.494-.034.382-.046.766-.036 1.15l1.736 64.584c-.545 14.522-6.821 18.042-8.892 19.204-12.425 6.968-40.672.726-68.695-15.181-3.096-1.757-6.892-1.737-9.968.055-3.076 1.791-4.968 5.083-4.968 8.642v45.446l-20.577-11.519c-1.518-.85-3.201-1.274-4.885-1.274s-3.367.425-4.885 1.274l-20.577 11.519v-45.446c0-3.559-1.892-6.851-4.968-8.642-3.076-1.79-6.873-1.811-9.968-.055-28.022 15.908-56.271 22.152-68.695 15.181-2.071-1.162-8.346-4.682-8.892-19.204l1.736-64.584c.011-.382 0-.766-.035-1.149zm-46.556 51.421c0-6.749 5.467-12.24 12.187-12.24h13.375l-.708 26.324c-.005.196-.004.393.002.59.692 21.521 10.772 31.612 19.107 36.287 21.722 12.183 53.428 1.593 73.416-7.596v46.173c0 3.549 1.881 6.832 4.943 8.627s6.845 1.833 9.942.099l30.577-17.117 30.577 17.117c1.518.85 3.202 1.274 4.885 1.274 1.749 0 3.497-.458 5.057-1.373 3.062-1.795 4.943-5.078 4.943-8.627v-46.173c19.988 9.189 51.698 19.777 73.415 7.596 8.335-4.675 18.415-14.766 19.107-36.287.006-.197.007-.394.002-.59l-.707-26.324h19.349c6.72 0 12.187 5.491 12.187 12.24v230.271h-331.656zm86.65 369.047c-20.165 0-36.571-16.584-36.571-36.969s16.406-36.969 36.571-36.969 36.57 16.584 36.57 36.969c.001 20.385-16.405 36.969-36.57 36.969zm287.95 0c-20.165 0-36.571-16.584-36.571-36.969s16.406-36.969 36.571-36.969 36.571 16.584 36.571 36.969-16.406 36.969-36.571 36.969zm85.932-70.143h-39.244c-.237 0-.472.009-.705.025-10.275-14.413-27.059-23.819-45.983-23.819-18.913 0-35.688 9.395-45.965 23.794h-195.29c-.24 0-.477.009-.713.026-10.275-14.413-27.059-23.819-45.982-23.819-18.913 0-35.688 9.395-45.965 23.794h-52.153v-48.632h472z"/></svg>