<svg id="Capa_1" enable-background="new 0 0 512 512" height="512" viewBox="0 0 512 512" width="512" xmlns="http://www.w3.org/2000/svg"><g><path d="m229.195 360.729c1.265.53 2.576.782 3.866.782 3.907 0 7.618-2.305 9.225-6.133l47.401-112.948c2.138-5.093-.259-10.954-5.351-13.091-5.094-2.136-10.954.259-13.091 5.351l-47.401 112.948c-2.137 5.093.26 10.955 5.351 13.091z"/><path d="m219.533 291.974c17.063 0 30.944-15.404 30.944-34.339s-13.882-34.339-30.944-34.339c-17.064 0-30.945 15.404-30.945 34.339 0 18.934 13.882 34.339 30.945 34.339zm0-48.678c5.933 0 10.944 6.566 10.944 14.339 0 7.772-5.012 14.339-10.944 14.339s-10.945-6.566-10.945-14.339 5.013-14.339 10.945-14.339z"/><path d="m261.522 334.859c0 18.935 13.882 34.339 30.944 34.339 17.064 0 30.945-15.404 30.945-34.339s-13.882-34.339-30.945-34.339c-17.062.001-30.944 15.405-30.944 34.339zm30.945-14.338c5.933 0 10.945 6.566 10.945 14.339 0 7.772-5.013 14.339-10.945 14.339-5.933 0-10.944-6.566-10.944-14.339-.001-7.773 5.011-14.339 10.944-14.339z"/><path d="m502 373.966h-9.383v-288.351c0-22.468-18.279-40.747-40.747-40.747h-391.74c-22.468 0-40.747 18.279-40.747 40.747v288.351h-9.383c-5.523 0-10 4.478-10 10v37.406c0 25.232 20.527 45.76 45.76 45.76h420.48c25.232 0 45.76-20.527 45.76-45.76v-37.406c0-5.523-4.478-10-10-10zm-441.87-309.098h391.74c11.44 0 20.747 9.307 20.747 20.747v27.836h-433.234v-27.836c0-11.44 9.306-20.747 20.747-20.747zm-20.747 68.583h433.234v240.515h-55.313v-182.629c0-5.522-4.478-10-10-10h-302.608c-5.522 0-10 4.478-10 10v182.629h-55.313zm357.921 240.515h-68.921c-5.522 0-10 4.478-10 10 0 6.387-5.196 11.583-11.583 11.583h-101.6c-6.387 0-11.583-5.196-11.583-11.583 0-5.522-4.478-10-10-10h-68.921v-172.629h282.607v172.629zm94.696 47.406c0 14.204-11.556 25.76-25.76 25.76h-420.48c-14.204 0-25.76-11.556-25.76-25.76v-27.406h155.239c4.193 12.528 16.04 21.583 29.961 21.583h101.6c13.921 0 25.768-9.055 29.961-21.583h155.239z"/><path d="m250.383 97.979h11.234c5.522 0 10-4.478 10-10s-4.478-10-10-10h-11.234c-5.522 0-10 4.478-10 10s4.477 10 10 10z"/></g></svg>