<svg id="Capa_1" enable-background="new 0 0 512 512" height="512" viewBox="0 0 512 512" width="512" xmlns="http://www.w3.org/2000/svg"><g><path d="m401.028 300.528c1.953 1.952 4.512 2.929 7.071 2.929s5.118-.977 7.071-2.929l22.878-22.878c3.905-3.905 3.905-10.237 0-14.143l-22.878-22.879c-3.905-3.903-10.235-3.904-14.143 0-3.905 3.905-3.905 10.237 0 14.143l15.808 15.808-15.808 15.807c-3.904 3.905-3.904 10.237.001 14.142z"/><path d="m110.972 240.629c-3.906-3.904-10.236-3.904-14.143 0l-22.878 22.879c-3.905 3.905-3.905 10.237 0 14.143l22.878 22.878c1.953 1.952 4.512 2.929 7.071 2.929s5.118-.977 7.071-2.929c3.905-3.905 3.905-10.237 0-14.143l-15.808-15.807 15.808-15.808c3.906-3.905 3.906-10.237.001-14.142z"/><path d="m502 373.966h-9.383v-288.351c0-22.468-18.279-40.747-40.747-40.747h-391.74c-22.468 0-40.747 18.279-40.747 40.747v288.351h-9.383c-5.523 0-10 4.478-10 10v37.406c0 25.232 20.527 45.76 45.76 45.76h420.48c25.232 0 45.76-20.527 45.76-45.76v-37.406c0-5.523-4.478-10-10-10zm-441.87-309.098h391.74c11.44 0 20.747 9.307 20.747 20.747v27.836h-433.234v-27.836c0-11.44 9.306-20.747 20.747-20.747zm-20.747 68.583h433.234v240.515h-144.234c-5.522 0-10 4.478-10 10 0 6.387-5.196 11.583-11.583 11.583h-101.6c-6.387 0-11.583-5.196-11.583-11.583 0-5.522-4.478-10-10-10h-144.234zm452.617 287.921c0 14.204-11.556 25.76-25.76 25.76h-420.48c-14.204 0-25.76-11.556-25.76-25.76v-27.406h155.239c4.193 12.528 16.04 21.583 29.961 21.583h101.6c13.921 0 25.768-9.055 29.961-21.583h155.239z"/><path d="m250.383 97.979h11.234c5.522 0 10-4.478 10-10s-4.478-10-10-10h-11.234c-5.522 0-10 4.478-10 10s4.477 10 10 10z"/><path d="m184.185 343.37c0 5.523 4.477 10 10 10h123.631c5.522 0 10-4.477 10-10v-67.262h30.546c5.522 0 10-4.478 10-10v-58.49c0-19.606-10.042-31.454-18.467-37.939-10.581-8.146-22.704-11.049-30.522-11.049h-34.097c-5.522 0-10 4.478-10 10 0 5.991-4.875 10.866-10.866 10.866h-16.82c-5.991 0-10.866-4.875-10.866-10.866 0-5.522-4.478-10-10-10h-34.097c-9.804 0-21.54 4.473-30.63 11.672-11.839 9.377-18.358 22.629-18.358 37.316v58.49c0 5.522 4.477 10 10 10h30.546zm-20.546-87.262v-48.49c0-20.365 20.737-28.988 28.988-28.988h25.759c4.164 12.126 15.683 20.866 29.204 20.866h16.82c13.521 0 25.04-8.74 29.204-20.866h25.759c7.74 0 28.988 6.87 28.988 28.988v48.49h-30.546c-5.522 0-10 4.478-10 10v67.262h-103.63v-67.262c0-5.522-4.478-10-10-10z"/></g></svg>