<svg id="Capa_1" enable-background="new 0 0 512 512" height="512" viewBox="0 0 512 512" width="512" xmlns="http://www.w3.org/2000/svg"><g><path d="m263.341 91.889h-11.939c-5.523 0-10 4.478-10 10s4.477 10 10 10h11.939c5.522 0 10-4.478 10-10 0-5.523-4.478-10-10-10z"/><path d="m318.563 91.889h-11.94c-5.522 0-10 4.478-10 10s4.478 10 10 10h11.94c5.522 0 10-4.478 10-10 0-5.523-4.478-10-10-10z"/><path d="m373.784 91.889h-11.94c-5.522 0-10 4.478-10 10s4.478 10 10 10h11.94c5.522 0 10-4.478 10-10 0-5.523-4.477-10-10-10z"/><path d="m150.618 91.889h-86.166c-5.523 0-10 4.478-10 10s4.477 10 10 10h86.166c5.523 0 10-4.478 10-10 0-5.523-4.477-10-10-10z"/><path d="m213.561 244.855h-27.081v-3.218c0-23.199-18.823-42.073-41.96-42.073s-41.96 18.874-41.96 42.073v3.218h-26.852c-5.523 0-10 4.477-10 10v114.148c0 18.857 15.341 34.197 34.197 34.197h89.46c18.856 0 34.197-15.341 34.197-34.197v-114.148c-.001-5.522-4.478-10-10.001-10zm-91.001-3.217c0-12.171 9.851-22.073 21.96-22.073 12.108 0 21.96 9.902 21.96 22.073v3.218h-43.92zm81.001 127.366c0 7.828-6.369 14.197-14.197 14.197h-89.46c-7.828 0-14.197-6.369-14.197-14.197v-104.149h16.852v21.235c0 5.523 4.477 10 10 10s10-4.477 10-10v-21.235h43.92v21.235c0 5.523 4.477 10 10 10s10-4.477 10-10v-21.235h17.081v104.149z"/><path d="m492.704 291.57h-23.556v-11.121c0-25.273-18.116-46.394-42.045-51.062.013-.205.02-.411.02-.619v-150.14c0-18.563-15.134-33.666-33.735-33.666h-359.653c-18.601 0-33.735 15.102-33.735 33.666v354.744c0 18.563 15.134 33.666 33.735 33.666h458.969c10.64 0 19.296-8.656 19.296-19.296v-136.877c0-10.639-8.656-19.295-19.296-19.295zm-43.556-11.121v11.121h-64.05v-11.121c0-17.657 14.366-32.022 32.024-32.022 17.66 0 32.026 14.365 32.026 32.022zm-429.148-201.821c0-7.535 6.162-13.666 13.735-13.666h359.652c7.573 0 13.735 6.131 13.735 13.666v60.187h-387.122zm0 354.744v-274.558h387.123v69.954c0 .208.007.414.02.619-23.928 4.668-42.044 25.789-42.044 51.062v11.121h-23.557c-10.64 0-19.295 8.655-19.295 19.295v136.173h-288.512c-7.573 0-13.735-6.131-13.735-13.666zm472 13.666h-149.753v-135.468h149.753z"/><path d="m407.123 398.67v6.104c0 5.522 4.478 10 10 10 5.523 0 10-4.478 10-10v-6.104c9.872-3.974 16.858-13.649 16.858-24.926 0-14.81-12.049-26.857-26.858-26.857s-26.857 12.048-26.857 26.857c0 11.276 6.986 20.951 16.857 24.926zm10-31.783c3.781 0 6.858 3.076 6.858 6.857 0 3.78-3.077 6.856-6.858 6.856s-6.857-3.076-6.857-6.856c0-3.781 3.076-6.857 6.857-6.857z"/></g></svg>