<svg id="Capa_1" enable-background="new 0 0 512 512" height="512" viewBox="0 0 512 512" width="512" xmlns="http://www.w3.org/2000/svg"><g><path d="m154.754 363.255c.47 5.148 4.788 9.09 9.959 9.09h48.846c5.523 0 10-4.478 10-10v-116.19c0-5.523-4.477-10-10-10h-59.461c-2.811 0-5.491 1.183-7.386 3.258-1.895 2.076-2.829 4.854-2.573 7.652zm48.805-107.1v96.189h-29.718l-8.788-96.189z"/><path d="m260.415 372.345h48.846c5.523 0 10-4.478 10-10v-116.19c0-5.523-4.477-10-10-10h-48.846c-5.523 0-10 4.477-10 10v116.189c0 5.523 4.478 10.001 10 10.001zm10-116.19h28.846v96.189h-28.846z"/><path d="m356.118 372.345h48.846c4.83 0 8.969-3.451 9.837-8.202l21.231-116.189c.534-2.919-.257-5.924-2.157-8.202s-4.713-3.596-7.68-3.596h-70.077c-5.523 0-10 4.477-10 10v116.189c0 5.522 4.477 10 10 10zm10-116.19h48.084l-17.577 96.189h-30.507z"/><path d="m511.814 135.172c-.014-5.513-4.487-9.975-10-9.975h-130.315c3.719-9.792 5.757-20.406 5.757-31.486 0-49.033-39.892-88.924-88.925-88.924s-88.924 39.891-88.924 88.924c0 11.081 2.037 21.694 5.757 31.486h-121.327l-11.713-72.433c-.783-4.844-4.965-8.403-9.872-8.403h-52.252c-5.523 0-10 4.478-10 10s4.477 10 10 10h43.74l11.689 72.28 9.316 71.941c.001.009.003.018.004.027.002.016.004.032.006.048l23.845 173.822c2.455 17.893 17.367 31.529 35.067 32.402-8.168 9.779-13.098 22.412-13.098 36.188 0 30.958 24.895 56.144 55.495 56.144 30.601 0 55.496-25.186 55.496-56.144 0-13.755-4.915-26.37-13.061-36.143h122.943c-8.146 9.773-13.061 22.389-13.061 36.143 0 30.958 24.895 56.144 55.495 56.144 30.601 0 55.496-25.186 55.496-56.144 0-14.081-5.15-26.967-13.645-36.833 22.66-3.723 41.017-22.146 44.254-45.74l20.741-151.199h11.278c2.657 0 5.204-1.057 7.08-2.939 1.876-1.881 2.927-4.431 2.92-7.087zm-223.483-110.385c38.005 0 68.925 30.919 68.925 68.924s-30.919 68.925-68.925 68.925c-38.005 0-68.924-30.92-68.924-68.925-.001-38.005 30.919-68.924 68.924-68.924zm-72.466 120.41c16.135 22.644 42.605 37.438 72.465 37.438 29.861 0 56.331-14.794 72.466-37.438h131.044l.134 52.1h-398.524l-6.747-52.1zm-4.306 305.872c0 19.93-15.923 36.144-35.496 36.144s-35.495-16.214-35.495-36.144 15.923-36.143 35.495-36.143 35.496 16.214 35.496 36.143zm172.316 36.144c-19.572 0-35.495-16.214-35.495-36.144s15.923-36.143 35.495-36.143 35.496 16.214 35.496 36.143c0 19.93-15.923 36.144-35.496 36.144zm66.291-121.436c-2.28 16.617-16.421 29.148-32.894 29.148h-281.8c-8.539 0-15.872-6.52-17.058-15.166l-22.287-162.462h374.408z"/><path d="m268.81 103.711h9.521v9.521c0 5.522 4.477 10 10 10s10-4.478 10-10v-9.521h9.522c5.523 0 10-4.478 10-10s-4.477-10-10-10h-9.522v-9.521c0-5.522-4.477-10-10-10s-10 4.478-10 10v9.521h-9.521c-5.523 0-10 4.478-10 10s4.477 10 10 10z"/></g></svg>