<svg id="Capa_1" enable-background="new 0 0 512 512" height="512" viewBox="0 0 512 512" width="512" xmlns="http://www.w3.org/2000/svg"><g><path d="m154.754 363.254c.471 5.149 4.789 9.09 9.959 9.09h48.846c5.523 0 10-4.477 10-10v-116.189c0-5.523-4.477-10-10-10h-59.461c-2.811 0-5.491 1.183-7.386 3.258s-2.828 4.853-2.573 7.651zm48.805-107.099v96.189h-29.718l-8.788-96.189z"/><path d="m260.416 372.345h48.846c5.523 0 10-4.477 10-10v-116.19c0-5.523-4.477-10-10-10h-48.846c-5.522 0-10 4.477-10 10v116.189c0 5.524 4.478 10.001 10 10.001zm10-116.19h28.846v96.189h-28.846z"/><path d="m356.118 372.345h48.846c4.829 0 8.969-3.452 9.837-8.203l21.23-116.189c.533-2.918-.257-5.923-2.156-8.202-1.9-2.278-4.714-3.596-7.681-3.596h-70.076c-5.522 0-10 4.477-10 10v116.189c0 5.524 4.478 10.001 10 10.001zm10-116.19h48.083l-17.575 96.189h-30.508z"/><path d="m511.815 135.171c-.015-5.513-4.487-9.974-10-9.974h-130.316c3.719-9.792 5.756-20.405 5.756-31.485 0-49.033-39.891-88.924-88.924-88.924s-88.925 39.891-88.925 88.924c0 11.08 2.037 21.694 5.756 31.485h-121.324l-11.714-72.433c-.783-4.843-4.966-8.403-9.872-8.403h-52.252c-5.523 0-10 4.477-10 10s4.477 10 10 10h43.739l11.686 72.265 9.318 71.956c.001.009.003.018.004.027.002.016.004.032.006.048l23.847 173.821c2.454 17.894 17.366 31.53 35.066 32.404-8.169 9.779-13.098 22.413-13.098 36.188 0 30.957 24.896 56.143 55.496 56.143s55.495-25.186 55.495-56.143c0-13.755-4.915-26.37-13.061-36.143h122.944c-8.146 9.773-13.061 22.389-13.061 36.143 0 30.957 24.895 56.143 55.496 56.143 30.6 0 55.495-25.186 55.495-56.143 0-14.081-5.15-26.967-13.645-36.833 22.661-3.723 41.018-22.146 44.255-45.742l20.741-151.198h11.277c2.656 0 5.204-1.057 7.08-2.938s2.927-4.431 2.92-7.088zm-223.484-110.384c38.005 0 68.924 30.919 68.924 68.924s-30.919 68.924-68.924 68.924-68.925-30.919-68.925-68.924 30.92-68.924 68.925-68.924zm-72.466 120.41c16.135 22.644 42.605 37.439 72.466 37.439s56.331-14.795 72.466-37.439h131.043l.135 52.1h-398.526l-6.746-52.1zm-4.306 305.873c0 19.929-15.923 36.143-35.495 36.143s-35.496-16.214-35.496-36.143c0-19.93 15.924-36.143 35.496-36.143 19.572-.001 35.495 16.213 35.495 36.143zm172.317 36.143c-19.572 0-35.496-16.214-35.496-36.143 0-19.93 15.924-36.143 35.496-36.143s35.495 16.214 35.495 36.143-15.923 36.143-35.495 36.143zm66.29-121.436c-2.279 16.618-16.421 29.149-32.894 29.149h-281.8c-8.538 0-15.872-6.52-17.058-15.167l-22.287-162.462h374.407z"/><path d="m268.81 103.711h39.042c5.522 0 10-4.477 10-10s-4.478-10-10-10h-39.042c-5.522 0-10 4.477-10 10s4.477 10 10 10z"/></g></svg>