<svg id="Capa_1" enable-background="new 0 0 512 512" height="512" viewBox="0 0 512 512" width="512" xmlns="http://www.w3.org/2000/svg"><g><path d="m466.874 130.995h-97.665v-87.663c0-3.402-1.731-6.572-4.593-8.412s-6.463-2.097-9.559-.685c-6.85 3.127-14.177 4.712-21.776 4.712-20.088 0-38.626-11.671-47.228-29.732-1.658-3.482-5.171-5.7-9.028-5.7h-29.226c-3.857 0-7.37 2.218-9.028 5.7-8.602 18.062-27.14 29.732-47.228 29.732-7.599 0-14.926-1.585-21.776-4.712-3.096-1.412-6.697-1.155-9.559.685s-4.593 5.01-4.593 8.412v87.663h-110.49c-24.882 0-45.125 20.308-45.125 45.27v286.952c0 24.962 20.243 45.27 45.125 45.27h421.749c24.882 0 45.126-20.308 45.126-45.27v-88.693c0-.213-.007-.425-.021-.635.013-.21.021-.422.021-.635v-196.989c0-24.962-20.243-45.27-45.126-45.27zm-446.874 95.352h179.893c2.764 2.071 5.653 4.088 8.666 6.049 25.256 16.437 50.249 23.148 51.3 23.425.837.221 1.695.331 2.553.331s1.716-.11 2.553-.331c1.051-.277 26.044-6.988 51.301-23.425 3.02-1.966 5.916-3.988 8.687-6.065.185.01.371.016.559.016h166.488v39.075h-472zm472-50.082v30.082h-145.632c13.848-16.409 21.556-35.093 22.693-55.352h97.814c13.854 0 25.125 11.336 25.125 25.27zm-316.385-119.068c5.186 1.163 10.508 1.749 15.928 1.749 25.587 0 49.362-13.717 62.245-35.433h17.249c12.883 21.716 36.657 35.433 62.245 35.433 5.419 0 10.742-.586 15.928-1.749v88.517c0 59.813-72.218 85.448-86.807 90.012-14.628-4.545-86.787-30.028-86.787-90.012v-88.517zm-130.49 93.798h110.637c1.138 20.258 8.845 38.943 22.693 55.352h-158.455v-30.082c0-13.934 11.271-25.27 25.125-25.27zm446.875 312.222c0 13.934-11.272 25.27-25.126 25.27h-421.749c-13.854-.001-25.125-11.337-25.125-25.27v-177.795h472v87.832c0 .213.007.425.021.635-.013.21-.021.422-.021.635z"/><path d="m184.857 336.067h-112.82c-5.523 0-10 4.477-10 10v85.337c0 5.522 4.477 10 10 10h112.82c5.523 0 10-4.478 10-10v-85.337c0-5.522-4.477-10-10-10zm-10 85.337h-92.82v-65.337h92.82z"/><path d="m252.184 157.602c1.877 1.867 4.414 2.909 7.05 2.909.146 0 .292-.003.438-.01 2.792-.122 5.405-1.406 7.207-3.543l35.729-42.358c3.561-4.222 3.025-10.53-1.196-14.091s-10.53-3.025-14.092 1.196l-28.731 34.062-10.167-10.109c-3.915-3.896-10.248-3.877-14.142.04-3.894 3.916-3.876 10.248.04 14.142z"/><path d="m393.368 326.98c-31.207 0-56.595 25.461-56.595 56.756s25.388 56.755 56.595 56.755 56.595-25.46 56.595-56.755-25.388-56.756-56.595-56.756zm0 93.511c-20.178 0-36.595-16.488-36.595-36.755 0-20.268 16.417-36.756 36.595-36.756 20.179 0 36.595 16.488 36.595 36.756 0 20.267-16.416 36.755-36.595 36.755z"/></g></svg>