<svg id="Capa_1" enable-background="new 0 0 512 512" height="512" viewBox="0 0 512 512" width="512" xmlns="http://www.w3.org/2000/svg"><g><path d="m405.89 239.124h15.004v15.004c0 5.523 4.477 10 10 10s10-4.477 10-10v-15.004h15.004c5.523 0 10-4.477 10-10s-4.477-10-10-10h-15.004v-15.004c0-5.523-4.477-10-10-10s-10 4.477-10 10v15.004h-15.004c-5.523 0-10 4.477-10 10 0 5.522 4.477 10 10 10z"/><path d="m512 136.799c0-18.788-15.285-34.074-34.073-34.074h-443.854c-18.788 0-34.073 15.286-34.073 34.074v238.402c0 18.788 15.285 34.074 34.073 34.074h443.854c18.788 0 34.073-15.286 34.073-34.074zm-20 0v181.338c0 7.76-6.313 14.073-14.073 14.073h-105.946v-209.485h105.945c7.761 0 14.074 6.314 14.074 14.074zm-472 0c0-7.76 6.313-14.074 14.073-14.074h317.908v209.485h-317.908c-7.76 0-14.073-6.313-14.073-14.073zm457.927 252.476h-443.854c-7.76 0-14.073-6.314-14.073-14.074v-26.035c4.292 1.954 9.058 3.044 14.073 3.044h443.854c5.016 0 9.781-1.09 14.073-3.044v26.035c0 7.76-6.314 14.074-14.073 14.074z"/><path d="m69.503 274.897c5.161 1.966 10.939-.625 12.904-5.786l4.917-12.911h33.744l4.862 12.883c1.511 4.005 5.316 6.472 9.357 6.472 1.173 0 2.367-.208 3.529-.647 5.167-1.95 7.775-7.72 5.825-12.887l-29.325-77.706c-.035-.091-.07-.182-.107-.272-1.825-4.438-6.103-7.303-10.9-7.303h-.011c-4.802.004-9.08 2.878-10.898 7.323-.031.076-.061.151-.09.228l-29.594 77.702c-1.965 5.16.626 10.938 5.787 12.904zm34.771-63.2 9.247 24.502h-18.579z"/><path d="m153.147 264.422c.01 2.652 1.073 5.192 2.955 7.061 1.874 1.86 4.406 2.903 7.045 2.903h.038c.654-.002 16.102-.062 22.276-.17 23.222-.406 40.077-20.622 40.077-48.071 0-28.854-16.431-48.24-40.885-48.24h-21.661c-2.655 0-5.202 1.056-7.078 2.936-1.876 1.879-2.927 4.428-2.922 7.083 0 .001.056 29.417.056 38.137 0 10.519.098 38.084.099 38.361zm31.506-66.517c19.379 0 20.885 21.615 20.885 28.24 0 13.796-6.316 27.827-20.426 28.074-2.765.048-7.578.087-11.999.115-.029-9.032-.066-21.851-.066-28.273 0-5.409-.021-18.773-.038-28.156z"/><path d="m235.997 264.422c.01 2.652 1.073 5.192 2.955 7.061 1.874 1.86 4.406 2.903 7.045 2.903h.038c.654-.002 16.102-.062 22.276-.17 23.222-.406 40.077-20.622 40.077-48.071 0-28.854-16.431-48.24-40.885-48.24h-21.661c-2.655 0-5.202 1.056-7.078 2.936-1.876 1.879-2.927 4.428-2.922 7.083 0 .001.056 29.417.056 38.137-.001 10.519.098 38.084.099 38.361zm31.505-66.517c19.379 0 20.885 21.615 20.885 28.24 0 13.796-6.316 27.827-20.426 28.074-2.765.048-7.578.087-11.999.115-.029-9.032-.066-21.851-.066-28.273 0-5.409-.022-18.773-.038-28.156z"/></g></svg>