<svg id="Capa_1" enable-background="new 0 0 512 512" height="512" viewBox="0 0 512 512" width="512" xmlns="http://www.w3.org/2000/svg"><g><path d="m197.553 332.727c0-40.905-33.275-74.185-74.177-74.185-40.901 0-74.178 33.279-74.178 74.185s33.276 74.185 74.178 74.185c40.901 0 74.177-33.28 74.177-74.185zm-128.355 0c0-29.878 24.304-54.185 54.178-54.185 29.873 0 54.177 24.307 54.177 54.185s-24.304 54.185-54.177 54.185c-29.874 0-54.178-24.308-54.178-54.185z"/><path d="m418.055 132.405c0-37.981-30.897-68.882-68.875-68.882s-68.875 30.9-68.875 68.882c0 37.981 30.897 68.882 68.875 68.882 37.977 0 68.875-30.901 68.875-68.882zm-117.75 0c0-26.954 21.925-48.882 48.875-48.882s48.875 21.928 48.875 48.882-21.925 48.882-48.875 48.882c-26.951 0-48.875-21.929-48.875-48.882z"/><path d="m323.972 342.727h147.074c22.582 0 40.954-18.374 40.954-40.958s-18.372-40.957-40.954-40.957h-103.533l11.871-18.435c23.004-6.321 43.755-19.948 58.78-38.686 16.137-20.124 25.024-45.44 25.024-71.286 0-62.872-51.145-114.021-114.009-114.021s-114.008 51.149-114.008 114.021c0 25.846 8.888 51.162 25.025 71.287 15.025 18.736 35.776 32.364 58.779 38.685l21.724 33.736c1.793 2.886 5.032 4.712 8.48 4.699h121.866c11.554 0 20.954 9.402 20.954 20.958s-9.4 20.957-20.954 20.957h-147.073c-23.207 0-42.088 18.883-42.088 42.093 0 11.243 4.377 21.813 12.324 29.763 7.948 7.951 18.518 12.33 29.76 12.329 29.328-.001 72.945-.002 105.365-.006 8.91-.001 17.279 3.473 23.564 9.78 6.305 6.328 9.777 14.774 9.777 23.782v1.088c0 8.564-3.335 16.616-9.39 22.671s-14.105 9.39-22.667 9.389l-288.909-.016 14.02-21.775c25.026-6.8 47.609-21.588 63.941-41.955 17.464-21.777 27.081-49.174 27.081-77.143 0-68.037-55.346-123.389-123.375-123.389s-123.375 55.352-123.375 123.389c0 27.969 9.617 55.366 27.081 77.143 16.332 20.367 38.916 35.155 63.941 41.955l23.874 37.076c1.792 2.882 5.024 4.71 8.478 4.698l307.241.018h.002c13.904 0 26.977-5.415 36.809-15.247 9.832-9.833 15.247-22.906 15.247-36.813v-1.088c0-14.337-5.544-27.796-15.609-37.899-10.065-10.101-23.463-15.663-37.728-15.663h-.006c-32.42.004-76.035.005-105.363.006-5.899 0-11.445-2.297-15.616-6.469s-6.468-9.721-6.468-15.623c.001-12.184 9.909-22.094 22.089-22.094zm3.577-118.801c-42.615-10.032-72.378-47.667-72.378-91.521 0-51.843 42.172-94.021 94.009-94.021s94.009 42.178 94.009 94.021c0 43.855-29.763 81.489-72.378 91.521-2.52.593-4.713 2.142-6.115 4.32l-15.516 24.095-15.516-24.095c-1.402-2.178-3.595-3.726-6.115-4.32zm-227.958 209.442c-46.862-11.033-79.591-52.418-79.591-100.641 0-57.009 46.374-103.389 103.376-103.389 57.001 0 103.375 46.38 103.375 103.389 0 48.224-32.729 89.609-79.591 100.641-2.521.594-4.714 2.142-6.116 4.32l-17.668 27.439-17.67-27.44c-1.401-2.177-3.595-3.726-6.115-4.319z"/></g></svg>