<svg id="Capa_1" enable-background="new 0 0 512 512" height="512" viewBox="0 0 512 512" width="512" xmlns="http://www.w3.org/2000/svg"><g><path d="m512 136.799c0-18.788-15.285-34.074-34.073-34.074h-443.854c-18.788 0-34.073 15.286-34.073 34.074v238.403c0 18.788 15.285 34.073 34.073 34.073h443.854c18.788 0 34.073-15.285 34.073-34.073zm-20 0v181.338c0 7.76-6.314 14.074-14.073 14.074h-105.946v-209.486h105.945c7.76 0 14.074 6.314 14.074 14.074zm-472 0c0-7.76 6.313-14.074 14.073-14.074h317.908v209.485h-317.908c-7.76 0-14.073-6.313-14.073-14.074zm457.927 252.476h-443.854c-7.76 0-14.073-6.314-14.073-14.073v-26.035c4.292 1.954 9.058 3.044 14.073 3.044h443.854c5.016 0 9.781-1.09 14.073-3.044v26.035c0 7.759-6.314 14.073-14.073 14.073z"/><path d="m417.243 263.989c1.953 1.953 4.512 2.929 7.071 2.929s5.118-.977 7.071-2.929l29.449-29.45c3.905-3.905 3.905-10.237 0-14.142l-29.449-29.45c-3.904-3.905-10.234-3.905-14.143 0-3.905 3.905-3.905 10.237 0 14.142l22.379 22.379-22.379 22.379c-3.904 3.905-3.904 10.236.001 14.142z"/><path d="m84.459 276.801h.044s20.121-.089 25.667-.089c16.698 0 30.283-13.585 30.283-30.283 0-9.322-4.234-17.674-10.881-23.233 2.607-4.186 4.114-9.125 4.114-14.409 0-15.075-12.265-27.339-27.339-27.339h-21.888c-5.522 0-10 4.477-10 10v75.355c0 2.66 1.06 5.21 2.944 7.087 1.875 1.864 4.412 2.911 7.056 2.911zm25.711-20.09c-2.904 0-9.789.024-15.711.048v-20.6c1.308-.005 2.644-.01 3.938-.015h11.773c5.67 0 10.283 4.613 10.283 10.283 0 5.672-4.613 10.284-10.283 10.284zm-3.822-55.265c4.047 0 7.339 3.292 7.339 7.339s-3.292 7.339-7.339 7.339c-1.61 0-4.642.009-7.949.02h-3.94v-14.699h11.889z"/><path d="m253.643 231.273-.087 35.503c-.014 5.523 4.453 10.011 9.976 10.024h.025c5.511 0 9.985-4.461 9.999-9.976l.087-35.537 22.26-34.195c3.013-4.629 1.703-10.823-2.925-13.837-4.63-3.014-10.823-1.703-13.837 2.925l-15.504 23.817-15.684-24.02c-3.019-4.623-9.214-5.926-13.84-2.906-4.625 3.02-5.926 9.216-2.906 13.84z"/><path d="m165.982 271.255c5.744 3.67 12.224 5.536 19.26 5.545h.058c6.055 0 11.741-1.318 16.902-3.917 16.285-8.201 19.703-20.644 19.703-29.64v-51.798c0-5.523-4.478-10-10-10-5.523 0-10 4.477-10 10v51.798c0 3.443-.988 7.894-8.699 11.777-2.377 1.198-4.964 1.78-7.905 1.78h-.031c-3.213-.004-6-.789-8.52-2.399-5.98-3.821-7.205-7.202-7.205-11.103v-51.852c0-5.523-4.478-10-10-10s-10 4.477-10 10v51.852c0 11.583 5.53 20.989 16.437 27.957z"/></g></svg>