<svg id="Capa_1" enable-background="new 0 0 512 512" height="512" viewBox="0 0 512 512" width="512" xmlns="http://www.w3.org/2000/svg"><g><path d="m178.799 306.582h-77.413c-5.522 0-10 4.477-10 10s4.478 10 10 10h77.413c5.523 0 10-4.477 10-10 0-5.522-4.478-10-10-10z"/><path d="m154.559 360.295h-53.173c-5.522 0-10 4.477-10 10s4.478 10 10 10h53.173c5.523 0 10-4.477 10-10s-4.478-10-10-10z"/><path d="m416.505 190.583v-31.773h3.77c5.523 0 10-4.477 10-10v-89.637c0-5.523-4.477-10-10-10h-410.275c-5.523 0-10 4.477-10 10v89.637c0 5.523 4.477 10 10 10h3.771v272.1c0 17.599 14.244 31.917 31.753 31.917h339.227c17.509 0 31.754-14.318 31.754-31.917v-27.895c53.514-5.199 95.495-50.851 95.495-106.216s-41.981-101.017-95.495-106.216zm-139.758-121.41h133.528v69.637h-133.528zm-103.218 0h83.218v134.254l-38.087-14.336c-1.135-.427-2.329-.641-3.523-.641-1.193 0-2.388.214-3.522.641l-38.086 14.336zm-153.529 69.637v-69.637h133.529v69.637zm376.505 292.1c0 6.571-5.273 11.917-11.754 11.917h-339.227c-6.48 0-11.753-5.346-11.753-11.917v-272.1h119.758v59.066c0 3.282 1.61 6.355 4.31 8.223 1.695 1.174 3.685 1.777 5.691 1.777 1.186 0 2.38-.211 3.521-.641l48.086-18.1 48.087 18.1c3.071 1.156 6.515.732 9.213-1.136 2.699-1.868 4.31-4.94 4.31-8.223v-59.066h119.758v31.735c-53.709 5.006-95.904 50.749-95.904 106.255 0 55.505 42.196 101.248 95.904 106.254zm9.796-47.402c-47.255 0-85.7-38.897-85.7-86.709s38.445-86.709 85.7-86.709 85.699 38.897 85.699 86.709-38.444 86.709-85.699 86.709z"/><path d="m439.933 263.12c-4.238-3.54-10.544-2.977-14.085 1.263l-27.556 32.982-9.558-9.595c-3.898-3.913-10.23-3.924-14.143-.027s-3.925 10.229-.027 14.142l17.291 17.357c1.881 1.888 4.432 2.942 7.084 2.942.145 0 .292-.003.438-.01 2.808-.123 5.435-1.422 7.236-3.579l34.581-41.391c3.542-4.236 2.977-10.543-1.261-14.084z"/></g></svg>