<svg id="Capa_1" enable-background="new 0 0 512 512" height="512" viewBox="0 0 512 512" width="512" xmlns="http://www.w3.org/2000/svg"><g><path d="m341.464 164.455h-43.141c-2.717-20.881-20.714-37.065-42.441-37.065s-39.724 16.183-42.44 37.065h-42.906c-5.523 0-10 4.477-10 10v139.833c0 21.967 17.872 39.839 39.839 39.839h111.251c21.967 0 39.839-17.872 39.839-39.839v-139.833c-.001-5.523-4.478-10-10.001-10zm-85.582-17.065c10.656 0 19.628 7.272 22.113 17.064h-44.225c2.485-9.791 11.456-17.064 22.112-17.064zm75.582 166.897c0 10.939-8.9 19.839-19.839 19.839h-111.251c-10.939 0-19.839-8.9-19.839-19.839v-129.832h32.551v27.749c0 5.523 4.477 10 10 10s10-4.477 10-10v-27.749h45.591v27.749c0 5.523 4.477 10 10 10s10-4.477 10-10v-27.749h32.786v129.832z"/><path d="m366.321 0h-220.642c-26.624 0-48.284 21.579-48.284 48.102v415.705c0 26.574 21.619 48.193 48.193 48.193h220.825c26.574 0 48.193-21.619 48.193-48.193v-415.705c-.001-26.523-21.661-48.102-48.285-48.102zm-248.926 84.545h277.211v327.623h-277.211zm28.284-64.545h220.643c15.596 0 28.284 12.606 28.284 28.102v16.443h-277.211v-16.443c0-15.496 12.688-28.102 28.284-28.102zm248.926 443.807c0 15.545-12.647 28.193-28.193 28.193h-220.825c-15.545 0-28.193-12.647-28.193-28.193v-31.639h277.211z"/><path d="m249.333 472.084h13.333c5.523 0 10-4.477 10-10s-4.477-10-10-10h-13.333c-5.523 0-10 4.477-10 10s4.478 10 10 10z"/></g></svg>