<svg id="Capa_1" enable-background="new 0 0 512 512" height="512" viewBox="0 0 512 512" width="512" xmlns="http://www.w3.org/2000/svg"><g><path d="m261.776 87.845h-11.865c-5.523 0-10 4.477-10 10s4.477 10 10 10h11.865c5.523 0 10-4.477 10-10s-4.477-10-10-10z"/><path d="m316.656 87.845h-11.865c-5.523 0-10 4.477-10 10s4.477 10 10 10h11.865c5.523 0 10-4.477 10-10s-4.477-10-10-10z"/><path d="m371.537 87.845h-11.865c-5.523 0-10 4.477-10 10s4.477 10 10 10h11.865c5.523 0 10-4.477 10-10s-4.477-10-10-10z"/><path d="m149.749 87.845h-85.633c-5.523 0-10 4.477-10 10s4.477 10 10 10h85.634c5.523 0 10-4.477 10-10-.001-5.523-4.478-10-10.001-10z"/><path d="m507.409 269.441c-2.862-1.84-6.462-2.099-9.558-.688-6.058 2.762-12.538 4.163-19.259 4.163-17.766 0-34.159-10.309-41.764-26.262-1.659-3.48-5.171-5.697-9.027-5.697h-3.193v-166.229c0-18.483-15.068-33.52-33.589-33.52h-357.43c-18.521 0-33.589 15.037-33.589 33.52v352.554c0 18.483 15.068 33.52 33.589 33.52h352.436c.142 0 .283-.004.424-.01 14.121 6.592 24.956 9.497 25.61 9.67.836.22 1.693.331 2.55.331s1.714-.11 2.55-.331c.956-.252 23.665-6.344 46.597-21.253 31.561-20.523 48.244-47.843 48.244-79.01v-92.347c0-3.402-1.73-6.571-4.591-8.411zm-487.409-194.713c0-7.455 6.096-13.52 13.589-13.52h357.431c7.493 0 13.589 6.065 13.589 13.52v59.753h-384.609zm0 352.554v-272.801h384.608v86.475h-3.193c-3.855 0-7.368 2.217-9.027 5.697-7.604 15.954-23.998 26.262-41.763 26.262-6.722 0-13.202-1.4-19.26-4.163-3.094-1.412-6.696-1.153-9.558.688-2.862 1.84-4.591 5.009-4.591 8.411v92.347c0 27.085 12.599 51.265 36.614 70.603h-320.241c-7.493 0-13.589-6.065-13.589-13.519zm472-57.083c0 52.909-63.77 75.865-77.402 80.164-13.68-4.283-77.381-27.093-77.381-80.164v-78.63c4.376.896 8.855 1.347 13.409 1.347 23.254 0 44.875-12.357 56.744-31.959h14.478c11.869 19.602 33.49 31.959 56.745 31.959 4.553 0 9.032-.451 13.408-1.347v78.63z"/><path d="m448.585 329.918c-4.219-3.563-10.529-3.03-14.092 1.189l-23.217 27.499-7.413-7.364c-3.919-3.893-10.251-3.872-14.142.046-3.893 3.918-3.872 10.25.046 14.142l15.106 15.006c1.878 1.865 4.413 2.906 7.047 2.906.146 0 .292-.003.438-.01 2.79-.122 5.402-1.405 7.203-3.539l30.212-35.784c3.565-4.219 3.032-10.528-1.188-14.091z"/><path d="m212.304 239.867h-26.852v-3.135c0-23.09-18.734-41.875-41.762-41.875s-41.762 18.785-41.762 41.875v3.135h-26.626c-5.523 0-10 4.477-10 10v113.444c0 18.774 15.273 34.047 34.047 34.047h88.907c18.774 0 34.047-15.273 34.047-34.047v-113.444c.001-5.523-4.476-10-9.999-10zm-90.377-3.136c0-12.062 9.763-21.875 21.762-21.875s21.762 9.813 21.762 21.875v3.135h-43.524zm80.377 126.58c0 7.746-6.302 14.047-14.047 14.047h-88.907c-7.746 0-14.047-6.302-14.047-14.047v-103.444h16.625v21.043c0 5.523 4.477 10 10 10s10-4.477 10-10v-21.043h43.524v21.043c0 5.523 4.477 10 10 10s10-4.477 10-10v-21.043h16.852z"/></g></svg>