<svg id="Capa_1" enable-background="new 0 0 512 512" height="512" viewBox="0 0 512 512" width="512" xmlns="http://www.w3.org/2000/svg"><g><path d="m502 152.188h-108.956l-129.943-131.033c-1.878-1.894-4.434-2.958-7.101-2.958s-5.223 1.065-7.101 2.958l-129.943 131.033h-108.956c-5.523 0-10 4.477-10 10v68.82c0 5.523 4.477 10 10 10h26.079l9.468 218.023c.86 19.499 16.562 34.773 35.747 34.773h349.411c19.184 0 34.887-15.274 35.748-34.78l9.467-218.016h26.08c5.522 0 10-4.477 10-10v-68.82c0-5.523-4.478-10-10-10zm-246-109.79 108.877 109.79h-217.754zm190.473 415.75c-.388 8.779-7.313 15.655-15.768 15.655h-349.411c-8.454 0-15.379-6.877-15.767-15.648l-9.43-217.148h399.804zm45.527-237.14h-472v-48.82h472z"/><path d="m117.548 449.851h66.014c5.523 0 10-4.477 10-10v-165.856c0-5.523-4.477-10-10-10h-66.014c-5.523 0-10 4.477-10 10v165.857c0 5.522 4.477 9.999 10 9.999zm10-165.856h46.014v145.857h-46.014z"/><path d="m222.993 449.851h66.014c5.522 0 10-4.477 10-10v-165.856c0-5.523-4.478-10-10-10h-66.014c-5.523 0-10 4.477-10 10v165.857c0 5.522 4.477 9.999 10 9.999zm10-165.856h46.014v145.857h-46.014z"/><path d="m328.438 449.851h66.015c5.523 0 10-4.477 10-10v-165.856c0-5.523-4.477-10-10-10h-66.015c-5.522 0-10 4.477-10 10v165.857c0 5.522 4.477 9.999 10 9.999zm10-165.856h46.015v145.857h-46.015z"/></g></svg>