<svg id="Capa_1" enable-background="new 0 0 512 512" height="512" viewBox="0 0 512 512" width="512" xmlns="http://www.w3.org/2000/svg"><g><path d="m190.232 286.774c-5.522 0-10 4.477-10 10v12.568h-95.372v-12.568c0-5.523-4.478-10-10-10s-10 4.477-10 10v22.568c0 5.523 4.478 10 10 10h115.372c5.522 0 10-4.477 10-10v-22.568c0-5.523-4.477-10-10-10z"/><path d="m482.686 246h-95.211c.988-2.936 1.525-6.078 1.525-9.343v-191.448c0-16.18-13.163-29.343-29.343-29.343h-207.314c-16.18 0-29.343 13.164-29.343 29.343v191.448c0 3.265.536 6.407 1.525 9.343h-95.182c-16.18 0-29.343 13.163-29.343 29.343v191.448c0 16.18 13.163 29.343 29.343 29.343h207.314c7.403 0 14.174-2.756 19.342-7.296 5.162 4.54 11.923 7.296 19.314 7.296h207.373c16.163 0 29.314-13.177 29.314-29.373v-191.388c0-16.196-13.15-29.373-29.314-29.373zm-339.686-9.343v-191.448c0-5.152 4.191-9.343 9.343-9.343h207.314c5.151 0 9.343 4.191 9.343 9.343v191.448c0 5.152-4.191 9.343-9.343 9.343h-36.181v-75.226c0-5.523-4.478-10-10-10h-116.102c-5.522 0-10 4.477-10 10v75.226h-35.031c-5.152 0-9.343-4.191-9.343-9.343zm64.374 9.343v-65.226h96.103v65.226zm-123 230.083v-68.683h96.103v68.683zm161.626-9.292c0 5.152-4.191 9.343-9.343 9.343h-36.181v-78.734c0-5.523-4.478-10-10-10h-116.102c-5.522 0-10 4.477-10 10v78.734h-35.031c-5.151 0-9.343-4.191-9.343-9.343v-191.448c0-5.152 4.191-9.343 9.343-9.343h207.314c5.151 0 9.343 4.191 9.343 9.343zm84.374 9.343v-68.784h96.103v68.785h-96.103zm161.626-9.373c0 5.168-4.178 9.373-9.314 9.373h-36.21v-78.784c0-5.523-4.478-10-10-10h-116.102c-5.522 0-10 4.477-10 10v78.785h-35.06c-5.136 0-9.314-4.205-9.314-9.373v-191.389c0-5.168 4.178-9.373 9.314-9.373h207.373c5.136 0 9.314 4.205 9.314 9.373v191.388z"/><path d="m436.232 286.774c-5.522 0-10 4.477-10 10v12.568h-95.372v-12.568c0-5.523-4.478-10-10-10-5.523 0-10 4.477-10 10v22.568c0 5.523 4.477 10 10 10h115.372c5.523 0 10-4.477 10-10v-22.568c0-5.523-4.477-10-10-10z"/><path d="m197.86 99.209h115.372c5.523 0 10-4.477 10-10v-22.569c0-5.523-4.477-10-10-10-5.522 0-10 4.477-10 10v12.568h-95.372v-12.568c0-5.523-4.478-10-10-10s-10 4.477-10 10v22.568c0 5.523 4.478 10.001 10 10.001z"/></g></svg>