<svg id="Capa_1" enable-background="new 0 0 512 512" height="512" viewBox="0 0 512 512" width="512" xmlns="http://www.w3.org/2000/svg"><g><path d="m498.175 266.165c-2.862-1.84-6.463-2.098-9.56-.685-7.839 3.578-16.224 5.392-24.921 5.392-22.991 0-44.207-13.357-54.052-34.03-1.658-3.482-5.171-5.701-9.028-5.701h-6.908v-108.105c0-5.523-4.478-10-10-10h-61.886v-24.909c0-48.593-39.733-88.127-88.572-88.127-11.194 0-21.91 2.077-31.779 5.864-9.868-3.787-20.584-5.864-31.779-5.864-48.839 0-88.572 39.534-88.572 88.127v24.908h-61.886c-5.522 0-10 4.477-10 10v323.157c0 26.224 21.368 47.559 47.634 47.559h279.231c.638 0 1.261-.061 1.866-.175 22.969 12.527 42.73 17.832 43.712 18.092.837.221 1.694.331 2.553.331.858 0 1.716-.11 2.553-.331 1.171-.31 29.013-7.785 57.172-26.111 38.477-25.041 58.815-58.3 58.815-96.18v-114.8c0-3.403-1.731-6.572-4.593-8.412zm-124.469-133.129v98.105h-5.863c-3.857 0-7.37 2.218-9.028 5.7-9.846 20.673-31.063 34.03-54.053 34.03-8.697 0-17.082-1.815-24.921-5.392-3.098-1.414-6.699-1.154-9.559.685-2.862 1.84-4.593 5.009-4.593 8.412v114.801c0 32.201 14.697 61.062 42.739 84.374h-217.31v-340.715h53.558v51.504c0 5.523 4.478 10 10 10s10-4.477 10-10v-51.504h137.144v51.504c0 5.523 4.478 10 10 10s10-4.477 10-10v-51.504zm-172.237-105.268c21.854 11.403 36.794 34.181 36.794 60.36v24.908h-73.588v-24.909c.001-26.179 14.941-48.956 36.794-60.359zm31.779-7.768c37.811 0 68.572 30.562 68.572 68.127v24.908h-43.557v-24.908c0-27.22-12.467-51.596-32.019-67.775 2.304-.233 4.64-.352 7.004-.352zm-63.558 0c2.364 0 4.701.12 7.004.353-19.551 16.178-32.018 40.555-32.018 67.775v24.908h-43.558v-24.909c0-37.565 30.762-68.127 68.572-68.127zm-140.458 426.193v-313.157h41.886v340.716h-14.252c-15.237 0-27.634-12.363-27.634-27.559zm453.536-56.815c0 31.086-16.589 57.713-49.306 79.144-20.838 13.65-42.05 20.851-49.233 23.06-7.192-2.212-28.4-9.412-49.234-23.06-32.717-21.431-49.306-48.059-49.306-79.144v-100.785c6.193 1.515 12.57 2.278 19.073 2.278 28.494 0 54.954-15.403 69.102-39.731h20.73c14.145 24.327 40.605 39.731 69.1 39.731 6.503 0 12.88-.764 19.073-2.278v100.785z"/><path d="m427.177 339.616c-4.221-3.56-10.529-3.025-14.091 1.196l-33.066 39.201-12.335-12.265c-3.915-3.894-10.248-3.877-14.142.04-3.895 3.917-3.877 10.248.04 14.142l20.031 19.918c1.878 1.867 4.414 2.909 7.051 2.909.145 0 .291-.003.438-.01 2.792-.122 5.404-1.407 7.206-3.542l40.064-47.498c3.562-4.221 3.025-10.53-1.196-14.091z"/></g></svg>